# xmcd CD database file
#
# Track frame offsets:
#	150
#	21442
#	40450
#	61710
#
# Disc length: 1074 seconds
#
# Revision: 0
# Processed by: cddbd v1.5PL3 Copyright (c) Steve Scherf et al.
# Submitted via: CDex 1.51
#
DISCID=2e043004
DTITLE=浜崎あゆみ - poker face
DYEAR=1998
DGENRE=JPop
TTITLE0=poker face
TTITLE1=FRIEND
TTITLE2=poker face -INSTRUMENTAL-
TTITLE3=FRIEND -INSTRUMENTAL-
EXTD=YEAR: 1998
EXTT0=
EXTT1=
EXTT2=
EXTT3=
PLAYORDER=
